# xmcd
#
# Track frame offsets:
#	150
#	76745
#	133652
#	167170
#	229627
#	258585
#
# Disc length: 4326 seconds
#
# Revision: 5
# Processed by: cddbd v1.5.2PL0 Copyright (c) Steve Scherf et al.
# Submitted via: audiograbber 1.82.02
#
DISCID=4410e406
DTITLE=Miles Davis - Miles in the Sky
DYEAR=1968
DGENRE=Jazz
TTITLE0=Stuff
TTITLE1=Paraphernalia
TTITLE2=Black Comedy
TTITLE3=Country Son
TTITLE4=Black Comedy (alternate take)
TTITLE5=Country Son (alternate take)
EXTD=YEAR: 1998
EXTT0=
EXTT1=
EXTT2=
EXTT3=
EXTT4=
EXTT5=
PLAYORDER=
